<?xml version="1.0" encoding="utf-8"?>
<!-- Generator: Adobe Illustrator 28.1.0, SVG Export Plug-In . SVG Version: 6.00 Build 0)  -->
<svg version="1.1" id="Calque_1" xmlns="http://www.w3.org/2000/svg" xmlns:xlink="http://www.w3.org/1999/xlink" x="0px" y="0px"
	 viewBox="0 0 1600 1600" style="enable-background:new 0 0 1600 1600;" xml:space="preserve">
<style type="text/css">
	.st0{fill:#FFFFFF;}
</style>
<g>
	<path class="st0" d="M799.8,138.7c-184.5,0-207.6,0.8-280.1,4.1c-72.3,3.3-121.7,14.8-164.9,31.6c-44.7,17.3-82.6,40.6-120.3,78.3
		c-37.8,37.8-61,75.7-78.4,120.3c-16.8,43.2-28.3,92.6-31.6,164.9c-3.2,72.5-4.1,95.6-4.1,280.1s0.8,207.6,4.1,280
		c3.3,72.3,14.8,121.7,31.6,164.9c17.4,44.7,40.6,82.6,78.3,120.3c37.7,37.8,75.6,61.1,120.3,78.4c43.2,16.8,92.6,28.2,164.9,31.6
		c72.5,3.3,95.6,4.1,280.1,4.1c184.5,0,207.6-0.8,280-4.1c72.3-3.3,121.7-14.8,165-31.6c44.7-17.3,82.5-40.6,120.2-78.4
		c37.8-37.8,61-75.7,78.4-120.3c16.7-43.2,28.2-92.6,31.6-164.9c3.3-72.5,4.1-95.6,4.1-280s-0.8-207.6-4.1-280.1
		c-3.4-72.3-14.9-121.7-31.6-164.9c-17.4-44.7-40.6-82.6-78.4-120.3c-37.8-37.8-75.6-61-120.3-78.3c-43.3-16.8-92.7-28.2-165-31.6
		c-72.5-3.3-95.5-4.1-280.1-4.1L799.8,138.7z M738.9,261.1c18.1,0,38.3,0,60.9,0c181.4,0,202.9,0.7,274.5,3.9
		c66.2,3,102.2,14.1,126.1,23.4c31.7,12.3,54.3,27,78.1,50.8c23.8,23.8,38.5,46.4,50.8,78.1c9.3,23.9,20.4,59.9,23.4,126.1
		c3.3,71.6,4,93.1,4,274.4s-0.7,202.8-4,274.4c-3,66.2-14.1,102.2-23.4,126.1c-12.3,31.7-27.1,54.3-50.8,78
		c-23.8,23.8-46.3,38.5-78.1,50.8c-23.9,9.3-59.9,20.4-126.1,23.4c-71.6,3.3-93.1,4-274.5,4c-181.4,0-202.9-0.7-274.5-4
		c-66.2-3.1-102.2-14.1-126.1-23.4c-31.7-12.3-54.3-27-78.1-50.8c-23.8-23.8-38.5-46.4-50.8-78.1c-9.3-23.9-20.4-59.9-23.4-126.1
		c-3.3-71.6-3.9-93.1-3.9-274.5s0.7-202.8,3.9-274.4c3-66.2,14.1-102.2,23.4-126.1c12.3-31.7,27.1-54.3,50.8-78.1
		c23.8-23.8,46.4-38.5,78.1-50.8c23.9-9.3,59.9-20.4,126.1-23.4c62.7-2.8,86.9-3.7,213.5-3.8L738.9,261.1z M1162.4,373.9
		c-45,0-81.5,36.5-81.5,81.5c0,45,36.5,81.5,81.5,81.5s81.5-36.5,81.5-81.5S1207.4,373.9,1162.4,373.9L1162.4,373.9z M799.8,469.1
		c-192.6,0-348.8,156.2-348.8,348.8s156.2,348.8,348.8,348.8c192.6,0,348.8-156.1,348.8-348.8S992.4,469.1,799.8,469.1L799.8,469.1z
		 M799.8,591.6c125,0,226.4,101.4,226.4,226.4c0,125-101.4,226.4-226.4,226.4c-125.1,0-226.4-101.4-226.4-226.4
		C573.4,692.9,674.7,591.6,799.8,591.6z"/>
</g>
</svg>
